<?xml version="1.0" encoding="UTF-8" standalone="no"?>
<!DOCTYPE svg PUBLIC "-//W3C//DTD SVG 1.1//EN" "http://www.w3.org/Graphics/SVG/1.1/DTD/svg11.dtd">
<svg width="100%" height="100%" viewBox="0 0 1280 1280" version="1.1" xmlns="http://www.w3.org/2000/svg" xmlns:xlink="http://www.w3.org/1999/xlink" xml:space="preserve" xmlns:serif="http://www.serif.com/" style="fill-rule:evenodd;clip-rule:evenodd;stroke-linejoin:round;stroke-miterlimit:1.41421;">
    <g transform="matrix(-1.76494,0,0,1.76494,1608.57,-72.146)">
        <g>
            <g transform="matrix(1.75135,-1.06279,0.906118,1.49318,-458.802,206.292)">
                <path d="M390.611,332.889C390.611,331.479 389.635,330.335 388.433,330.335L332.277,330.335C331.075,330.335 330.099,331.479 330.099,332.889C330.099,334.299 331.075,335.444 332.277,335.444L388.433,335.444C389.635,335.444 390.611,334.299 390.611,332.889Z" style="fill:white;"/>
            </g>
            <g transform="matrix(1.49678,0,0,1.49678,-197.547,-160.442)">
                <path d="M423.164,334.219C423.164,334.219 413.752,305.994 417.43,302.118C421.107,298.242 426.418,302.242 433.65,297.356C440.642,292.631 440.571,287.77 446.007,286.939C451.443,286.108 471.353,304.664 471.353,304.664L423.164,334.219Z" style="fill:white;"/>
            </g>
        </g>
    </g>
    <g transform="matrix(10.5105,0,0,10.5105,-9226.87,-3874.48)">
        <path d="M959.132,422.263C959.95,423.96 960.435,425.841 960.613,427.912C961.023,432.676 959.308,435.57 957.767,437.491C955.294,440.575 952.485,442.391 949.419,444.21C946.13,446.162 941.319,447.712 941.319,447.712C941.319,447.712 947.313,443.745 947.435,439.947C947.493,438.167 944.645,437.309 939.818,438.076C935.155,438.818 932.723,441.39 927.558,441.197C923.666,441.051 917.283,437.766 916.615,432.379C915.947,426.992 918.134,421.788 923.487,417.594C927.802,414.213 931.917,412.905 936.426,412.445C938.296,412.254 940.438,412.164 942.72,412.377C948.061,415.63 953.334,418.998 958.759,422.108C958.888,422.173 959.012,422.225 959.132,422.263ZM922.732,425.36C923.617,425.36 924.336,426.079 924.336,426.964C924.336,427.849 923.617,428.567 922.732,428.567C921.847,428.567 921.129,427.849 921.129,426.964C921.129,426.079 921.847,425.36 922.732,425.36ZM945.054,412.702C948.21,413.29 951.534,414.544 954.703,416.95C956.144,418.045 957.309,419.277 958.215,420.649C953.776,418.089 949.387,415.438 945.054,412.702Z" style="fill:white;"/>
    </g>
</svg>
