<?xml version="1.0" encoding="UTF-8" standalone="no"?>
<!DOCTYPE svg PUBLIC "-//W3C//DTD SVG 1.1//EN" "http://www.w3.org/Graphics/SVG/1.1/DTD/svg11.dtd">
<svg width="100%" height="100%" viewBox="0 0 1280 1280" version="1.1" xmlns="http://www.w3.org/2000/svg" xmlns:xlink="http://www.w3.org/1999/xlink" xml:space="preserve" xmlns:serif="http://www.serif.com/" style="fill-rule:evenodd;clip-rule:evenodd;stroke-linejoin:round;stroke-miterlimit:1.41421;">
    <g transform="matrix(-4.85001,0,0,4.85001,3313.48,-1241.79)">
        <g>
            <g transform="matrix(1.75135,-1.06279,0.906118,1.49318,-458.802,206.292)">
                <path d="M390.611,332.889C390.611,331.479 389.635,330.335 388.433,330.335L332.277,330.335C331.075,330.335 330.099,331.479 330.099,332.889C330.099,334.299 331.075,335.444 332.277,335.444L388.433,335.444C389.635,335.444 390.611,334.299 390.611,332.889Z" style="fill:white;"/>
            </g>
            <g transform="matrix(1.49678,0,0,1.49678,-197.547,-160.442)">
                <path d="M423.164,334.219C423.164,334.219 413.752,305.994 417.43,302.118C421.107,298.242 426.418,302.242 433.65,297.356C440.642,292.631 440.571,287.77 446.007,286.939C451.443,286.108 471.353,304.664 471.353,304.664L423.164,334.219Z" style="fill:white;"/>
            </g>
        </g>
    </g>
    <path d="M1254.88,550.872C1264.94,583.571 1271.47,618.315 1274.64,655.13C1286.48,792.706 1236.94,876.288 1192.43,931.787C1121,1020.87 1039.88,1073.3 951.313,1125.86C856.311,1182.24 717.372,1226.99 717.372,1226.99C717.372,1226.99 890.492,1112.43 894.025,1002.71C895.679,951.312 813.424,926.522 674.025,948.69C539.326,970.111 469.097,1044.4 319.9,1038.81C207.488,1034.6 23.134,939.725 3.841,784.133C-15.452,628.54 47.714,478.244 202.322,357.106C326.95,259.458 445.797,221.674 576.052,208.388C608.588,205.069 643.995,202.802 681.421,202.874L1254.88,550.872ZM180.532,581.412C206.096,581.412 226.851,602.167 226.851,627.731C226.851,653.295 206.096,674.049 180.532,674.049C154.968,674.049 134.213,653.295 134.213,627.731C134.213,602.167 154.968,581.412 180.532,581.412Z" style="fill:white;"/>
</svg>
